<svg id="Camada_1" xmlns="http://www.w3.org/2000/svg" viewBox="0 0 165.1 52"><style>.st0{fill:#3A76B9;} .st1{fill:#262424;}</style><path class="st0" d="M0 15.38L15.38 0C7.09.45.45 7.09 0 15.38M32.59 16.28c0-.07 0-.14-.01-.21H19.45l-2.98-2.98h15.8c-.29-1.47-.78-2.86-1.44-4.16H16.8l2.98-2.98h9.13c-1.38-1.68-3.09-3.08-5.02-4.11-.03-.02-.07-.04-.11-.05-1.32-.68-2.73-1.19-4.23-1.5L.3 19.55c.16.77.37 1.52.63 2.25.26.72.57 1.41.92 2.08 2.57 4.87 7.53 8.27 13.31 8.67L4.18 21.56l2.25-2.25L19.4 32.29c1.54-.3 3.01-.82 4.37-1.52l-14.4-14.4 2.25-2.25L26.49 29c1.09-.87 2.06-1.88 2.89-3l-5.77-5.77h8.49c.32-1.26.49-2.58.49-3.95"/><path class="st1" d="M41.15 10.88c0-1.22.22-2.33.65-3.33.43-.99 1.02-1.84 1.77-2.55.75-.71 1.63-1.25 2.65-1.63 1.02-.38 2.1-.57 3.25-.57 1.18 0 2.3.19 3.35.57 1.05.38 1.93.9 2.64 1.54l-3.15 3.8c-.29-.37-.65-.66-1.08-.85-.43-.19-.91-.29-1.45-.29-.43 0-.84.08-1.21.23-.37.15-.7.37-.98.66-.28.29-.5.64-.66 1.05-.16.41-.24.87-.24 1.37 0 .5.08.95.25 1.35.17.4.39.74.67 1.03.28.29.61.51.98.66.37.15.77.23 1.19.23.59 0 1.1-.12 1.52-.37.42-.24.76-.53 1-.86l3.15 3.78c-.69.69-1.54 1.24-2.55 1.65-1.01.41-2.15.62-3.44.62-1.15 0-2.24-.19-3.25-.58-1.02-.39-1.9-.94-2.65-1.65s-1.34-1.56-1.77-2.55c-.43-1.01-.64-2.1-.64-3.31M63.69 10.79c0 .5.08.97.23 1.38.15.42.36.78.63 1.08.27.3.59.54.96.7.37.17.78.25 1.21.25s.83-.08 1.2-.25c.37-.17.69-.4.96-.7.27-.3.49-.66.64-1.08.15-.42.23-.88.23-1.38 0-.49-.08-.94-.23-1.35-.15-.41-.36-.76-.64-1.04-.27-.28-.59-.5-.96-.66-.37-.16-.77-.24-1.2-.24s-.84.08-1.21.24c-.37.16-.7.38-.96.66-.27.28-.48.63-.63 1.04-.15.41-.23.86-.23 1.35m-5.46 0c0-1.22.22-2.33.65-3.32.43-.99 1.03-1.83 1.78-2.52.76-.69 1.65-1.22 2.69-1.6 1.04-.37 2.16-.56 3.37-.56s2.33.19 3.37.56c1.04.37 1.94.91 2.7 1.6.76.69 1.36 1.53 1.79 2.52.43.99.65 2.09.65 3.32 0 1.22-.22 2.34-.65 3.35-.43 1.01-1.03 1.87-1.79 2.58s-1.66 1.26-2.7 1.65c-1.04.39-2.16.58-3.37.58s-2.33-.19-3.37-.58c-1.04-.39-1.93-.94-2.69-1.65s-1.35-1.57-1.78-2.58c-.44-1.01-.65-2.13-.65-3.35M84.09 9.69h1.01c.17 0 .36-.01.57-.04.21-.03.4-.09.58-.18.18-.09.33-.22.45-.39s.18-.39.18-.66-.05-.49-.15-.65c-.1-.16-.23-.28-.39-.36-.16-.08-.33-.13-.51-.15-.19-.02-.36-.03-.51-.03H84.1v2.46zm-4.95-6.46h6.59c.75 0 1.49.08 2.24.23.74.15 1.4.42 1.99.8.58.38 1.05.89 1.42 1.53.36.64.54 1.44.54 2.41 0 .94-.23 1.76-.69 2.47-.46.71-1.12 1.26-1.98 1.65l3.88 6.2h-5.91l-2.93-5.47h-.15v5.47h-4.99V3.23zM104.97 18.52h-5.14V7.57h-3.76V3.23h12.66v4.34h-3.76zM113.35 3.23h10.52v4.28h-5.68v1.31h5.34v4h-5.34v1.43h6.05v4.27h-10.89zM127.65 3.23h5.81l2.53 9.46h.08l2.42-9.46h5.82l-5.54 15.29h-5.7zM153.15 8.56l-1.25 3.78h2.48l-1.23-3.78zm-2.65-5.33h5.47l5.96 15.3h-5.6l-.8-2.25h-4.86l-.76 2.25h-5.44l6.03-15.3zM161.33 3.7v1.82h-.56V3.7h-.64v-.47h1.84v.47zM164.56 5.52l.01-1.62h-.01l-.59 1.62h-.39L163 3.9h-.01l.01 1.62h-.52V3.23h.79l.52 1.47h.02l.49-1.47h.8v2.29zM46.3 26.6c0-.99-.73-1.71-1.69-1.71s-1.69.71-1.69 1.71c0 .99.73 1.71 1.69 1.71s1.69-.71 1.69-1.71m1.15-2.67v5.34H46.3v-.77c-.41.57-1.04.91-1.87.91-1.45 0-2.66-1.23-2.66-2.81 0-1.59 1.21-2.81 2.66-2.81.83 0 1.46.34 1.87.9v-.76h1.15zM53.48 26.55c0-.96-.73-1.68-1.7-1.68s-1.7.72-1.7 1.68.73 1.68 1.7 1.68 1.7-.72 1.7-1.68m1.13-2.62v5.09c0 1.72-1.34 2.52-2.74 2.52-1.18 0-2.08-.44-2.53-1.29l.99-.58c.23.46.63.82 1.56.82.99 0 1.59-.55 1.59-1.47v-.65c-.41.58-1.04.93-1.86.93-1.51 0-2.69-1.23-2.69-2.76 0-1.53 1.19-2.76 2.69-2.76.82 0 1.45.35 1.86.93v-.79h1.13zM59.18 23.84v1.25c-.76-.05-1.65.3-1.65 1.5v2.69h-1.15v-5.34h1.15v.9c.33-.74.98-1 1.65-1M60.46 23.93h1.15v5.34h-1.15v-5.34zm-.16-1.54c0-.41.33-.74.74-.74s.74.33.74.74c0 .4-.33.74-.74.74s-.74-.34-.74-.74M67.26 27.77c0 1.07-.93 1.64-2.08 1.64-1.07 0-1.84-.48-2.18-1.25l.99-.58c.17.48.6.77 1.19.77.51 0 .91-.17.91-.6 0-.95-2.87-.42-2.87-2.33 0-1 .87-1.63 1.95-1.63.88 0 1.6.41 1.98 1.11l-.97.54c-.19-.42-.57-.61-1-.61-.42 0-.78.18-.78.57-.02.98 2.86.39 2.86 2.37M68.26 26.6c0-1.59 1.21-2.81 2.82-2.81 1.05 0 1.96.54 2.38 1.38l-.99.58c-.24-.5-.76-.82-1.4-.82-.94 0-1.65.72-1.65 1.68s.72 1.68 1.65 1.68c.64 0 1.16-.33 1.42-.82l.99.57c-.45.84-1.36 1.39-2.4 1.39-1.61-.02-2.82-1.25-2.82-2.83M74.74 23.93h1.15v5.34h-1.15v-5.34zm-.16-1.54c0-.41.33-.74.74-.74s.74.33.74.74c0 .4-.33.74-.74.74-.4 0-.74-.34-.74-.74M81.7 26.16c-.16-.92-.83-1.31-1.53-1.31-.87 0-1.45.51-1.61 1.31h3.14zm-1.42 2.19c.64 0 1.12-.29 1.38-.66l.95.56c-.49.73-1.29 1.16-2.34 1.16-1.76 0-2.91-1.21-2.91-2.81 0-1.58 1.14-2.81 2.82-2.81 1.59 0 2.68 1.28 2.68 2.82 0 .16-.02.33-.04.48h-4.25c.18.84.85 1.26 1.71 1.26M89.16 25.99v3.28h-1.15v-3.16c0-.81-.47-1.24-1.2-1.24-.76 0-1.36.45-1.36 1.54v2.86H84.3v-5.34h1.15v.68c.35-.56.93-.82 1.66-.82 1.2 0 2.05.82 2.05 2.2M90.53 26.6c0-1.59 1.21-2.81 2.82-2.81 1.05 0 1.96.54 2.38 1.38l-.99.58c-.24-.5-.76-.82-1.4-.82-.94 0-1.65.72-1.65 1.68s.72 1.68 1.65 1.68c.64 0 1.16-.33 1.42-.82l.99.57c-.45.84-1.36 1.39-2.4 1.39-1.61-.02-2.82-1.25-2.82-2.83M100.97 26.16c-.16-.92-.83-1.31-1.53-1.31-.87 0-1.45.51-1.61 1.31h3.14zm-1.42 2.19c.64 0 1.12-.29 1.38-.66l.95.56c-.49.73-1.29 1.16-2.34 1.16-1.76 0-2.91-1.21-2.91-2.81 0-1.58 1.14-2.81 2.82-2.81 1.59 0 2.68 1.28 2.68 2.82 0 .16-.02.33-.04.48h-4.25c.18.84.85 1.26 1.71 1.26"/><g><path class="st1" d="M1.84 48.85h1.63c.5 0 .9-.05 1.18-.14.29-.09.51-.23.68-.4.24-.24.43-.56.56-.97.13-.4.2-.89.2-1.47 0-.8-.13-1.41-.39-1.84-.26-.43-.58-.72-.96-.86-.27-.1-.71-.16-1.31-.16h-1.6v5.84zm-1.01.9v-7.63h2.63c.59 0 1.05.04 1.36.11.44.1.81.28 1.12.55.4.34.7.77.9 1.3.2.53.3 1.13.3 1.81 0 .58-.07 1.09-.2 1.54-.14.45-.31.82-.52 1.11-.21.29-.44.52-.69.69-.25.17-.56.3-.91.38-.36.09-.76.13-1.23.13H.83zM8.84 44.23h.94v5.53h-.94v-5.53zm0-2.11h.94v1.08h-.94v-1.08zM13.16 49.75l-2.1-5.53h.99l1.19 3.31c.13.36.25.73.35 1.11.08-.29.2-.64.35-1.05l1.23-3.37h.96l-2.09 5.53h-.88zM17.39 44.23h.94v5.53h-.94v-5.53zm0-2.11h.94v1.08h-.94v-1.08zM19.8 48.1l.93-.15c.05.37.2.66.43.85.24.2.57.3 1 .3.43 0 .75-.09.96-.26.21-.17.31-.38.31-.62 0-.21-.09-.38-.28-.5-.13-.08-.45-.19-.96-.32-.69-.17-1.16-.32-1.43-.45s-.47-.3-.6-.53c-.14-.22-.21-.47-.21-.74 0-.25.06-.47.17-.68.11-.21.27-.38.46-.52.15-.11.34-.2.6-.27.25-.07.52-.11.81-.11.43 0 .81.06 1.14.19.33.12.57.29.73.51.16.21.26.5.32.86l-.92.12c-.04-.28-.16-.51-.36-.67-.2-.16-.48-.24-.85-.24-.43 0-.74.07-.92.21-.18.14-.28.31-.28.5 0 .12.04.23.11.33.08.1.2.18.36.25.09.03.37.11.83.24.66.18 1.12.32 1.39.43.26.11.47.28.62.49.15.22.22.48.22.8 0 .31-.09.61-.27.88-.18.28-.44.49-.79.64-.34.15-.73.23-1.17.23-.72 0-1.27-.15-1.64-.45-.36-.29-.6-.73-.71-1.32M29.46 46.98c-.34.14-.85.26-1.53.35-.38.06-.66.12-.82.19-.16.07-.28.17-.37.3-.09.13-.13.28-.13.45 0 .25.09.46.28.62.19.17.47.25.83.25s.68-.08.96-.24c.28-.16.49-.37.62-.65.1-.21.15-.52.15-.94v-.33zm-3.04-3.57c0-.36.1-.65.3-.86.2-.22.45-.32.76-.32.22 0 .51.09.88.28.2.1.37.16.49.16.11 0 .2-.03.25-.09.06-.06.1-.18.12-.36h.68c-.01.4-.11.69-.3.89-.19.2-.43.3-.72.3-.22 0-.51-.1-.86-.29-.23-.12-.4-.19-.51-.19-.12 0-.21.04-.29.12-.08.08-.11.21-.11.37h-.69zm3.12 5.66c-.35.29-.68.5-1 .62-.32.12-.67.18-1.03.18-.61 0-1.07-.15-1.4-.45-.33-.3-.49-.68-.49-1.14 0-.27.06-.52.18-.74.12-.22.28-.4.48-.54.2-.14.42-.24.67-.31.18-.05.46-.1.83-.14.76-.09 1.31-.2 1.67-.32 0-.13.01-.21.01-.24 0-.38-.09-.65-.27-.81-.24-.21-.6-.32-1.07-.32-.44 0-.77.08-.98.23-.21.15-.37.43-.47.82l-.92-.12c.08-.39.22-.71.41-.95.19-.24.47-.43.83-.56.36-.13.78-.2 1.25-.2s.86.06 1.15.17c.29.11.51.25.65.42.14.17.24.38.29.64.03.16.05.45.05.86v1.25c0 .87.02 1.42.06 1.65.04.23.12.45.24.66h-.98c-.07-.17-.13-.4-.16-.66M32.9 46.99c0 .71.15 1.24.46 1.59.31.35.7.53 1.17.53.46 0 .85-.18 1.16-.53.31-.35.46-.89.46-1.62 0-.68-.16-1.2-.47-1.55-.31-.35-.7-.53-1.16-.53-.47 0-.86.18-1.17.53-.29.34-.45.87-.45 1.58m-.96 0c0-1.02.28-1.78.85-2.27.48-.41 1.05-.61 1.74-.61.76 0 1.38.25 1.86.75.48.5.72 1.19.72 2.06 0 .71-.11 1.27-.32 1.68-.21.41-.52.72-.93.95-.41.23-.85.34-1.34.34-.77 0-1.4-.25-1.88-.74-.46-.51-.7-1.23-.7-2.16M42.93 46.62h2.59l-.8-2.11c-.24-.64-.42-1.17-.54-1.58-.1.49-.23.98-.41 1.46l-.84 2.23zm-2.2 3.13l2.93-7.63h1.09l3.12 7.63h-1.15l-.89-2.31h-3.19l-.84 2.31h-1.07zM49.58 46.89c0 .73.14 1.25.43 1.59.29.33.65.5 1.08.5.43 0 .79-.17 1.08-.5.29-.33.44-.85.44-1.56 0-.68-.15-1.19-.45-1.53-.3-.34-.66-.52-1.09-.52-.42 0-.77.17-1.06.51-.28.34-.43.84-.43 1.51m-.77 3.32l.91.14c.04.28.14.49.32.61.23.17.55.26.95.26.43 0 .77-.09 1-.26.24-.17.4-.42.48-.73.05-.19.07-.59.07-1.2-.41.48-.92.72-1.53.72-.76 0-1.35-.27-1.76-.82-.42-.55-.62-1.21-.62-1.97 0-.53.1-1.01.29-1.46.19-.45.47-.79.83-1.03s.79-.36 1.28-.36c.65 0 1.19.26 1.61.79v-.67h.86V49c0 .86-.09 1.47-.26 1.83-.18.36-.45.64-.83.85-.39.21-.86.32-1.41.32-.66 0-1.19-.15-1.6-.44-.41-.3-.6-.75-.59-1.35M55.33 49.75v-5.53h.84v.84c.22-.39.41-.65.6-.78.18-.12.38-.19.6-.19.32 0 .64.1.96.3l-.32.87c-.23-.14-.46-.2-.69-.2-.2 0-.39.06-.55.18-.16.12-.28.29-.35.51-.1.33-.16.7-.16 1.09v2.89h-.93zM59.64 44.23h.94v5.53h-.94v-5.53zm-.05-.69l.69-1.46h1.23l-1.15 1.46h-.77z"/><g><path class="st1" d="M66.31 47.73l.92.12c-.1.64-.36 1.13-.77 1.49-.41.36-.92.54-1.53.54-.76 0-1.36-.25-1.82-.74-.46-.49-.69-1.2-.69-2.13 0-.6.1-1.12.3-1.57.2-.45.5-.78.9-1.01.4-.22.84-.34 1.32-.34.6 0 1.09.15 1.47.46.38.3.63.73.73 1.29l-.91.14c-.09-.37-.24-.65-.46-.84-.22-.19-.49-.28-.8-.28-.47 0-.86.17-1.15.51-.3.34-.44.87-.44 1.61 0 .74.14 1.28.43 1.62.28.34.66.51 1.11.51.37 0 .67-.11.92-.34.25-.23.4-.57.47-1.04M69.07 46.99c0 .71.15 1.24.46 1.59.31.35.7.53 1.17.53.46 0 .85-.18 1.16-.53.31-.35.46-.89.46-1.62 0-.68-.16-1.2-.47-1.55-.31-.35-.7-.53-1.16-.53-.47 0-.86.18-1.17.53-.29.34-.45.87-.45 1.58m-.96 0c0-1.02.28-1.78.85-2.27.48-.41 1.05-.61 1.74-.61.76 0 1.38.25 1.86.75.48.5.72 1.19.72 2.06 0 .71-.11 1.27-.32 1.68s-.52.72-.93.95c-.41.23-.85.34-1.34.34-.77 0-1.4-.25-1.88-.74-.46-.51-.7-1.23-.7-2.16"/></g><path class="st1" d="M74.79 42.12h.94v7.63h-.94z"/><g><path class="st1" d="M81.14 46.98c-.34.14-.85.26-1.53.35-.38.06-.66.12-.82.19-.16.07-.28.17-.37.3-.09.13-.13.28-.13.45 0 .25.09.46.28.62.19.17.47.25.83.25s.68-.08.96-.24c.28-.16.49-.37.62-.65.1-.21.15-.52.15-.94v-.33zm.07 2.09c-.35.29-.68.5-1 .62-.32.12-.67.18-1.03.18-.61 0-1.07-.15-1.4-.45-.33-.3-.49-.68-.49-1.14 0-.27.06-.52.18-.74.12-.22.28-.4.48-.54.2-.14.42-.24.67-.31.18-.05.46-.1.83-.14.76-.09 1.31-.2 1.67-.32 0-.13.01-.21.01-.24 0-.38-.09-.65-.27-.81-.24-.21-.6-.32-1.07-.32-.44 0-.77.08-.98.23s-.37.43-.47.82l-.92-.12c.08-.39.22-.71.41-.95.19-.24.47-.43.83-.56.36-.13.78-.2 1.25-.2s.86.06 1.15.17c.29.11.51.25.65.42.14.17.24.38.29.64.03.16.05.45.05.86v1.25c0 .87.02 1.42.06 1.65.04.23.12.45.24.66h-.95c-.1-.17-.16-.4-.19-.66M87.98 46.99c0 .71.15 1.24.45 1.59.3.35.65.53 1.06.53.41 0 .76-.17 1.04-.5.29-.33.43-.85.43-1.53 0-.76-.15-1.31-.44-1.67-.29-.35-.65-.53-1.08-.53-.42 0-.76.17-1.04.51-.28.34-.42.87-.42 1.6m2.96 2.76v-.7c-.35.55-.87.82-1.55.82-.44 0-.85-.12-1.22-.36s-.66-.58-.86-1.02c-.2-.44-.3-.94-.3-1.5 0-.55.09-1.05.28-1.5.18-.45.46-.79.83-1.03.37-.24.78-.36 1.23-.36.33 0 .63.07.89.21.26.14.47.32.64.55v-2.74h.93v7.63h-.87zM97.24 46.98c-.34.14-.85.26-1.53.35-.38.06-.66.12-.82.19-.16.07-.28.17-.37.3-.09.13-.13.28-.13.45 0 .25.09.46.28.62.19.17.47.25.83.25s.68-.08.96-.24c.28-.16.49-.37.62-.65.1-.21.15-.52.15-.94v-.33zm.07 2.09c-.35.29-.68.5-1 .62-.32.12-.67.18-1.03.18-.61 0-1.07-.15-1.4-.45-.33-.3-.49-.68-.49-1.14 0-.27.06-.52.18-.74s.28-.4.48-.54c.2-.14.42-.24.67-.31.18-.05.46-.1.83-.14.76-.09 1.31-.2 1.67-.32 0-.13.01-.21.01-.24 0-.38-.09-.65-.27-.81-.24-.21-.6-.32-1.07-.32-.44 0-.77.08-.98.23-.21.15-.37.43-.47.82l-.92-.12c.08-.39.22-.71.41-.95.19-.24.47-.43.83-.56.36-.13.78-.2 1.25-.2s.86.06 1.15.17c.29.11.51.25.65.42.14.17.24.38.29.64.03.16.05.45.05.86v1.25c0 .87.02 1.42.06 1.65.04.23.12.45.24.66h-.95c-.1-.17-.16-.4-.19-.66M104.58 48.85h1.63c.5 0 .9-.05 1.18-.14.29-.09.51-.23.68-.4.24-.24.43-.56.56-.97.13-.4.2-.89.2-1.47 0-.8-.13-1.41-.39-1.84-.26-.43-.58-.72-.96-.86-.27-.1-.71-.16-1.31-.16h-1.6v5.84zm-1.01.9v-7.63h2.63c.59 0 1.05.04 1.36.11.44.1.81.28 1.12.55.4.34.7.77.9 1.3.2.53.3 1.13.3 1.81 0 .58-.07 1.09-.2 1.54-.14.45-.31.82-.52 1.11-.21.29-.44.52-.69.69-.25.17-.56.3-.91.38-.36.09-.76.13-1.23.13h-2.76zM112.19 46.99c0 .71.15 1.24.46 1.59.31.35.7.53 1.17.53.46 0 .85-.18 1.16-.53.31-.35.46-.89.46-1.62 0-.68-.16-1.2-.47-1.55-.31-.35-.7-.53-1.16-.53-.47 0-.86.18-1.17.53-.3.34-.45.87-.45 1.58m-.96 0c0-1.02.28-1.78.85-2.27.48-.41 1.05-.61 1.74-.61.76 0 1.38.25 1.86.75.48.5.72 1.19.72 2.06 0 .71-.11 1.27-.32 1.68-.21.41-.52.72-.93.95-.41.23-.85.34-1.34.34-.77 0-1.4-.25-1.88-.74-.47-.51-.7-1.23-.7-2.16M118.95 49.75l-1.69-5.53h.97l.88 3.19.33 1.19c.01-.06.11-.44.29-1.14l.88-3.24h.96l.83 3.21.28 1.06.32-1.07.95-3.2h.91l-1.73 5.53h-.97l-.88-3.31-.21-.94-1.12 4.25h-1zM127.18 48.85h1.63c.5 0 .9-.05 1.18-.14.29-.09.51-.23.68-.4.24-.24.43-.56.56-.97.13-.4.2-.89.2-1.47 0-.8-.13-1.41-.39-1.84-.26-.43-.58-.72-.96-.86-.27-.1-.71-.16-1.31-.16h-1.6v5.84zm-1.01.9v-7.63h2.63c.59 0 1.05.04 1.36.11.44.1.81.28 1.12.55.4.34.7.77.9 1.3.2.53.3 1.13.3 1.81 0 .58-.07 1.09-.2 1.54-.14.45-.31.82-.52 1.11-.21.29-.44.52-.7.69-.25.17-.56.3-.91.38-.36.09-.76.13-1.23.13h-2.75zM137.8 49.75v-.81c-.43.62-1.02.94-1.75.94-.33 0-.63-.06-.91-.19-.28-.12-.49-.28-.63-.47-.14-.19-.23-.42-.29-.69-.04-.18-.06-.48-.06-.87v-3.43h.94v3.07c0 .49.02.82.06.99.06.25.18.44.37.58.19.14.43.21.71.21.28 0 .54-.07.79-.22.25-.14.42-.34.52-.59.1-.25.15-.61.15-1.08v-2.96h.94v5.53h-.84zM141.66 45.75h1.97c.65 0 1.12-.12 1.39-.36.27-.24.41-.58.41-1.03 0-.32-.08-.59-.24-.82-.16-.23-.37-.38-.64-.45-.17-.04-.48-.07-.94-.07h-1.95v2.73zm-1.01 4v-7.63h2.88c.51 0 .89.02 1.16.07.37.06.69.18.94.36s.46.42.61.74c.15.32.23.66.23 1.04 0 .65-.21 1.2-.62 1.65-.41.45-1.16.67-2.24.67h-1.96v3.1h-1zM148.69 46.99c0 .71.15 1.24.46 1.59.31.35.7.53 1.17.53.46 0 .85-.18 1.16-.53.31-.35.46-.89.46-1.62 0-.68-.16-1.2-.47-1.55-.31-.35-.7-.53-1.16-.53-.47 0-.86.18-1.17.53-.3.34-.45.87-.45 1.58m-.97 0c0-1.02.28-1.78.85-2.27.48-.41 1.05-.61 1.74-.61.76 0 1.38.25 1.86.75.48.5.72 1.19.72 2.06 0 .71-.11 1.27-.32 1.68-.21.41-.52.72-.93.95-.41.23-.85.34-1.34.34-.77 0-1.4-.25-1.88-.74-.46-.51-.7-1.23-.7-2.16M154.43 49.75v-5.53h.84v.79c.41-.61.99-.91 1.76-.91.33 0 .64.06.92.18s.49.28.63.47c.14.19.24.43.29.69.03.17.05.48.05.91v3.4h-.94v-3.36c0-.38-.04-.67-.11-.86-.07-.19-.2-.34-.39-.45-.19-.11-.4-.17-.65-.17-.4 0-.74.13-1.03.38-.29.25-.43.73-.43 1.44v3.02h-.94zM162.83 48.92l.14.83c-.26.06-.5.08-.71.08-.34 0-.6-.05-.79-.16-.19-.11-.32-.25-.4-.42s-.11-.54-.11-1.11v-3.18h-.69v-.73h.69v-1.37l.93-.56v1.93h.94v.73h-.94v3.23c0 .27.02.44.05.52.03.08.09.14.16.18.07.05.18.07.32.07.1-.01.24-.02.41-.04"/></g></g></svg>